<svg width="79" height="67" viewBox="0 0 79 67" fill="none" xmlns="http://www.w3.org/2000/svg">
<path d="M31.6129 6.46265C30.6504 8.31592 32.4628 11.4386 30.6362 12.087L30.7867 11.9188C31.8893 10.403 29.5848 7.19465 30.6873 5.67882C30.8586 5.45647 31.0057 5.21215 31.1254 4.951" fill="#2F2E41"/>
<path d="M40.6268 33.6515C40.6584 33.466 40.6532 33.2751 40.6116 33.0921C40.57 32.9092 40.493 32.7386 40.386 32.5925C40.2791 32.4464 40.1448 32.3283 39.9926 32.2465C39.8404 32.1646 39.6739 32.1211 39.5051 32.119L37.1259 24.3932L35.809 26.2694L38.3245 33.4882C38.34 33.8055 38.4592 34.1055 38.6594 34.3312C38.8596 34.5569 39.127 34.6927 39.4108 34.7128C39.6945 34.7329 39.9751 34.636 40.1992 34.4404C40.4234 34.2448 40.5755 33.9641 40.6268 33.6515Z" fill="#FFB8B8"/>
<path d="M30.1688 14.9986C30.1688 14.9986 30.0947 12.2019 32.3322 13.804C34.5697 15.4061 39.4413 30.4135 39.4413 30.4135L37.017 31.8796L31.5135 18.146L30.1688 14.9986Z" fill="#FC8585"/>
<path d="M36.7699 62.9307L35.6526 63.4643L33.2794 58.9015L34.9284 58.1139L36.7699 62.9307Z" fill="#FFB6B6"/>
<path d="M38.1868 64.8126L37.3856 65.1953L36.9193 64.4181L36.8763 65.4386L34.7512 66.4535C34.6493 66.5022 34.5362 66.5132 34.4284 66.4849C34.3205 66.4566 34.2236 66.3905 34.1517 66.2963C34.0798 66.2021 34.0368 66.0847 34.0289 65.9612C34.0209 65.8377 34.0485 65.7146 34.1076 65.6099L35.3038 63.4894L34.977 62.6346L36.8075 61.9011L38.1868 64.8126Z" fill="#2F2E41"/>
<path d="M19.2554 64.4783L18.0419 64.412L17.693 59.1487L19.4842 59.2465L19.2554 64.4783Z" fill="#FFB6B6"/>
<path d="M19.7932 66.8634L18.9229 66.8159L18.8077 65.889L18.3697 66.7857L16.0614 66.6596C15.9508 66.6535 15.8448 66.6081 15.7589 66.53C15.673 66.4518 15.6116 66.345 15.5839 66.2252C15.5561 66.1053 15.5633 65.9787 15.6045 65.8637C15.6457 65.7488 15.7187 65.6516 15.8128 65.5863L17.7183 64.2641L17.7589 63.3357L19.6921 63.5709L19.7932 66.8634Z" fill="#2F2E41"/>
<path d="M55.0119 63.6397C55.0923 63.643 55.1717 63.6185 55.2392 63.5697C55.3068 63.5209 55.3592 63.4501 55.3896 63.3668C55.4199 63.2835 55.4266 63.1918 55.4087 63.1042C55.3909 63.0165 55.3493 62.9371 55.2898 62.8767C55.2795 62.8329 55.2721 62.8014 55.2619 62.7575C55.3369 62.5384 55.4688 62.3493 55.6406 62.2145C55.8124 62.0796 56.0163 62.0052 56.2262 62.0008C56.4361 61.9963 56.6425 62.062 56.8187 62.1895C56.995 62.317 57.1332 62.5003 57.2156 62.7162C57.6909 63.9275 58.3033 65.1803 58.0155 66.5232C59.9522 61.8199 59.2304 56.0028 56.2751 52.0297C55.4634 51.5411 54.8015 50.6648 54.6224 49.6411C55.0233 49.7882 55.5184 49.4195 55.2139 48.9523C55.0822 48.7738 54.9491 48.5968 54.8174 48.4184C56.32 46.5953 58.1528 49.4159 56.5027 51.8725C57.0558 52.6326 57.5363 53.4553 57.9364 54.3271C57.8378 53.3979 57.938 52.4558 58.2287 51.5783C58.524 50.7603 59.0846 50.068 59.5774 49.3583C60.1765 48.4935 61.4281 48.8762 61.519 49.9645C60.961 50.1761 60.896 51.0805 61.5373 51.1974C61.3869 53.2254 60.2184 55.1001 58.5947 56.0061C59.2132 57.8889 59.4656 59.8973 59.335 61.8977C59.603 59.5587 61.8416 58.9679 63.4018 58.0228C63.5009 57.9502 63.6169 57.9114 63.7355 57.9112C63.854 57.911 63.9701 57.9494 64.0695 58.0217C64.1689 58.0939 64.2473 58.197 64.2952 58.3182C64.3431 58.4394 64.3584 58.5736 64.3392 58.7044C64.1236 58.805 63.9175 58.9294 63.7239 59.0756C63.6332 59.1452 63.564 59.2444 63.5257 59.3597C63.4874 59.4749 63.482 59.6006 63.5101 59.7195C63.5383 59.8384 63.5986 59.9446 63.6829 60.0236C63.7672 60.1026 63.8713 60.1506 63.9809 60.1609C63.2091 62.3557 61.1781 63.8457 59.0793 63.8598C58.8859 64.8415 58.6018 65.7982 58.2315 66.7143L55.1165 66.7475C55.105 66.7089 55.0946 66.6691 55.0842 66.6305C55.3727 66.6477 55.662 66.6253 55.9457 66.5639C55.1742 65.5625 54.58 65.0537 55.0119 63.6397Z" fill="#F2F2F2"/>
<path d="M22.321 30.2647C22.321 30.2647 19.8532 37.7817 19.8133 38.6229C19.7734 39.4642 19.0696 50.1017 18.4793 50.7198C17.8891 51.3379 16.0845 60.9204 17.4886 61.6699C18.8928 62.4194 23.3228 61.1777 23.3228 61.1777L24.8639 49.8586L25.3874 41.1866C25.3874 41.1866 26.9812 61.6075 29.872 61.5474C32.7627 61.4873 36.2852 60.257 36.2852 60.257L32.2392 47.89C32.2392 47.89 32.2964 33.2491 31.3585 30.2961C30.4207 27.3431 22.321 30.2647 22.321 30.2647Z" fill="#2F2E41"/>
<path d="M29.6439 10.8978L26.3389 11.2361L25.8065 13.0629C25.8065 13.0629 23.0406 14.7607 23.653 15.532C24.2655 16.3033 23.5161 21.5011 23.5161 21.5011L23.6854 25.7203C23.6854 25.7203 23.5035 28.6435 22.9594 29.317C22.4153 29.9905 20.9918 31.642 21.9976 30.8519C25.5244 28.0815 31.6888 30.4191 31.6888 30.4191L30.8081 24.3904C30.8081 24.3904 32.8084 14.52 32.019 13.6864C31.2296 12.8528 30.4848 12.7475 30.4848 12.7475L29.6439 10.8978Z" fill="#FC8585"/>
<path d="M12.2775 30.0208C12.4435 29.9862 12.6008 29.9114 12.7382 29.8015C12.8755 29.6917 12.9897 29.5495 13.0726 29.3851C13.1555 29.2206 13.2051 29.0378 13.218 28.8496C13.2308 28.6613 13.2066 28.4722 13.147 28.2956L18.7213 23.0098L16.6788 22.3206L11.5766 27.5641C11.3177 27.6957 11.1111 27.9288 10.9957 28.2194C10.8804 28.5099 10.8644 28.8376 10.9508 29.1404C11.0372 29.4432 11.22 29.7001 11.4645 29.8623C11.709 30.0246 11.9983 30.081 12.2775 30.0208Z" fill="#FFB8B8"/>
<path d="M26.4342 16.1944C26.4342 16.1944 27.5325 13.6803 24.9032 14.1097C22.2739 14.5392 12.3031 25.9706 12.3031 25.9706L13.9717 28.4227L24.0487 18.4432L26.4342 16.1944Z" fill="#FC8585"/>
<path d="M22.1524 11.9299L11.7277 26.8571C11.5474 27.1162 11.4663 27.4446 11.5022 27.7704C11.5381 28.0962 11.6882 28.3928 11.9194 28.5952C14.3403 35.1651 21.5829 40.037 30.1028 44.459C30.3345 44.6608 30.6284 44.7515 30.92 44.7114C31.2115 44.6712 31.4769 44.5034 31.6578 44.2448L42.0825 29.3175C42.2631 29.0585 42.3443 28.7301 42.3083 28.4042C42.2724 28.0783 42.1223 27.7817 41.8909 27.5795C34.7411 23.0671 28.5958 17.8391 23.7075 11.7157C23.4757 11.5141 23.1818 11.4235 22.8903 11.4636C22.5989 11.5038 22.3335 11.6714 22.1524 11.9299Z" fill="#E6E6E6"/>
<path d="M41.3509 28.9779L38.1777 33.5216C36.2394 36.2805 33.403 38.0699 30.2881 38.499C27.1732 38.928 24.033 37.9619 21.5533 35.8115L12.6607 28.0533C12.5289 27.9383 12.4434 27.7696 12.4228 27.5843C12.4022 27.3989 12.4482 27.2119 12.5508 27.0644L22.6242 12.6402C22.7273 12.4931 22.8784 12.3978 23.0443 12.3752C23.2102 12.3525 23.3774 12.4043 23.5091 12.5192C28.0075 19.0116 34.029 24.064 41.2419 27.9899C41.3734 28.1049 41.4588 28.2735 41.4792 28.4587C41.4996 28.6439 41.4535 28.8307 41.3509 28.9779Z" fill="white"/>
<path d="M21.9445 20.0787L19.8779 23.0379C19.8231 23.1162 19.7426 23.1671 19.6543 23.1792C19.5659 23.1913 19.4769 23.1637 19.4067 23.1025C19.3365 23.0413 19.291 22.9514 19.28 22.8527C19.2691 22.7539 19.2937 22.6544 19.3484 22.5759L21.415 19.6168C21.4421 19.5779 21.4758 19.5453 21.5142 19.521C21.5526 19.4966 21.5949 19.481 21.6387 19.4749C21.6825 19.4689 21.7269 19.4725 21.7694 19.4857C21.812 19.4988 21.8518 19.5212 21.8866 19.5516C21.9213 19.5819 21.9504 19.6196 21.9722 19.6626C21.9939 19.7055 22.0079 19.7528 22.0132 19.8017C22.0186 19.8507 22.0153 19.9004 22.0035 19.9479C21.9917 19.9954 21.9717 20.0399 21.9445 20.0787Z" fill="#CCCCCC"/>
<path d="M25.8207 17.8837L21.2824 24.3822C21.2552 24.4211 21.2215 24.4536 21.1831 24.4779C21.1448 24.5022 21.1025 24.5178 21.0587 24.5238C21.0149 24.5298 20.9705 24.5262 20.928 24.513C20.8855 24.4998 20.8457 24.4775 20.811 24.4471C20.7762 24.4168 20.7471 24.3791 20.7254 24.3362C20.7037 24.2933 20.6897 24.2461 20.6843 24.1971C20.6789 24.1482 20.6822 24.0986 20.694 24.0511C20.7057 24.0036 20.7257 23.9591 20.7529 23.9202L25.2912 17.4218C25.3183 17.3828 25.352 17.3502 25.3904 17.3259C25.4288 17.3015 25.4711 17.2858 25.5149 17.2797C25.5587 17.2737 25.6032 17.2773 25.6458 17.2905C25.6883 17.3036 25.7281 17.326 25.7629 17.3564C25.7977 17.3867 25.8268 17.4245 25.8486 17.4674C25.8703 17.5104 25.8843 17.5577 25.8897 17.6067C25.895 17.6557 25.8917 17.7053 25.8799 17.7529C25.868 17.8004 25.8479 17.8449 25.8207 17.8837Z" fill="#CCCCCC"/>
<path d="M18.0805 28.7231C19.3022 28.7231 20.2926 27.6161 20.2926 26.2506C20.2926 24.8851 19.3022 23.7781 18.0805 23.7781C16.8588 23.7781 15.8684 24.8851 15.8684 26.2506C15.8684 27.6161 16.8588 28.7231 18.0805 28.7231Z" fill="#FC8585"/>
<path d="M26.0616 23.0197L20.4877 31.0011C20.4295 31.0673 20.3516 31.1073 20.2688 31.1134C20.1859 31.1195 20.104 31.0913 20.0385 31.0342C19.9731 30.9771 19.9287 30.8951 19.9139 30.8038C19.8991 30.7125 19.9149 30.6183 19.9582 30.5392L25.5321 22.5577C25.5903 22.4915 25.6682 22.4516 25.7511 22.4455C25.8339 22.4394 25.9159 22.4675 25.9813 22.5246C26.0468 22.5817 26.0911 22.6638 26.1059 22.7551C26.1207 22.8464 26.105 22.9406 26.0616 23.0197Z" fill="#CCCCCC"/>
<path d="M29.6776 21.1974L21.8977 32.3375C21.8396 32.4037 21.7616 32.4437 21.6788 32.4498C21.5959 32.4559 21.514 32.4277 21.4485 32.3706C21.3831 32.3135 21.3387 32.2315 21.3239 32.1402C21.3091 32.0489 21.3249 31.9547 21.3682 31.8756L29.1481 20.7355C29.2062 20.6693 29.2842 20.6293 29.367 20.6232C29.4499 20.6171 29.5318 20.6453 29.5973 20.7023C29.6627 20.7594 29.7071 20.8415 29.7219 20.9328C29.7367 21.0241 29.7209 21.1183 29.6776 21.1974Z" fill="#CCCCCC"/>
<path d="M29.6506 26.1508L24.0766 34.1322C24.0185 34.1984 23.9405 34.2384 23.8577 34.2445C23.7748 34.2506 23.6929 34.2224 23.6274 34.1653C23.562 34.1082 23.5176 34.0262 23.5028 33.9349C23.488 33.8436 23.5038 33.7494 23.5471 33.6702L29.1211 25.6889C29.1792 25.6226 29.2572 25.5827 29.34 25.5766C29.4228 25.5705 29.5048 25.5986 29.5702 25.6557C29.6357 25.7128 29.68 25.7949 29.6948 25.8862C29.7097 25.9775 29.6939 26.0717 29.6506 26.1508Z" fill="#CCCCCC"/>
<path d="M37.0258 27.1351L31.4519 35.1165C31.3937 35.1827 31.3158 35.2227 31.2329 35.2288C31.1501 35.2349 31.0681 35.2067 31.0027 35.1496C30.9373 35.0925 30.8929 35.0105 30.8781 34.9192C30.8633 34.8279 30.879 34.7337 30.9224 34.6545L36.4963 26.6731C36.5545 26.6069 36.6324 26.5669 36.7153 26.5608C36.7981 26.5547 36.8801 26.5829 36.9455 26.64C37.0109 26.6971 37.0553 26.7791 37.0701 26.8704C37.0849 26.9617 37.0692 27.0559 37.0258 27.1351Z" fill="#FC8585"/>
<path d="M32.2518 30.2417L24.4719 41.3818C24.4137 41.448 24.3358 41.488 24.253 41.4941C24.1701 41.5002 24.0882 41.472 24.0227 41.4149C23.9573 41.3578 23.9129 41.2758 23.8981 41.1845C23.8833 41.0932 23.8991 40.999 23.9424 40.9199L31.7223 29.7798C31.7804 29.7136 31.8584 29.6736 31.9412 29.6675C32.024 29.6614 32.106 29.6896 32.1714 29.7467C32.2369 29.8038 32.2812 29.8858 32.296 29.9771C32.3109 30.0684 32.2951 30.1626 32.2518 30.2417Z" fill="#CCCCCC"/>
<path d="M24.1029 6.1817C24.1027 6.78231 24.2344 7.37379 24.4865 7.90423C24.7386 8.43466 25.1033 8.88783 25.5486 9.22394C25.994 9.56006 26.5063 9.76884 27.0407 9.83197C27.5751 9.89511 28.1152 9.81066 28.6135 9.58603C29.1119 9.3614 29.5533 9.00348 29.899 8.54366C30.2448 8.08385 30.4842 7.53622 30.5963 6.94883C30.7085 6.36144 30.6899 5.75227 30.5423 5.17478C30.3946 4.59729 30.1223 4.06914 29.7494 3.6367L29.7337 3.61911C29.7074 3.58827 29.6811 3.55746 29.6536 3.52809C29.6537 3.52817 29.6534 3.5281 29.6536 3.52809C29.6534 3.52802 29.6528 3.52781 29.6526 3.52767C29.6527 3.52785 29.6525 3.52753 29.6526 3.52767C29.6526 3.52749 29.6523 3.52682 29.6523 3.52663C29.6181 3.4914 29.584 3.45618 29.5485 3.42242C29.0741 2.95758 28.49 2.65541 27.8659 2.55207C27.2419 2.44872 26.6044 2.5486 26.0298 2.83974C25.4552 3.13088 24.9679 3.60094 24.6262 4.19365C24.2844 4.78635 24.1028 5.47658 24.1029 6.1817Z" fill="#2F2E41"/>
<path d="M28.1946 10.1075C29.7149 10.1075 30.9474 8.72993 30.9474 7.03066C30.9474 5.33138 29.7149 3.95384 28.1946 3.95384C26.6742 3.95384 25.4418 5.33138 25.4418 7.03066C25.4418 8.72993 26.6742 10.1075 28.1946 10.1075Z" fill="#FFB8B8"/>
<path d="M25.2599 7.85062C24.9908 6.49532 25.3798 4.97691 26.2277 4.07211C26.6542 3.62603 27.1846 3.32349 27.7581 3.19926C28.3315 3.07503 28.9246 3.13415 29.4693 3.36983C29.5386 3.40107 29.6078 3.43525 29.6757 3.47094L29.7073 3.48758V3.49275C29.7135 3.49749 29.7196 3.50248 29.7257 3.50752C29.7386 3.52097 29.7542 3.53061 29.7712 3.53558C30.0102 3.52859 30.2479 3.57813 30.4686 3.68095C30.6893 3.78378 30.888 3.93757 31.0518 4.13224C31.4785 4.64967 31.6794 5.48587 31.6178 6.48678L31.6159 6.51808L31.592 6.53472C31.269 6.76351 30.9338 6.97007 30.5883 7.15326C29.3798 7.78838 28.2765 7.90607 27.2162 7.51257L27.1967 7.50536L26.7517 6.67169C26.6603 7.24668 26.7091 9.15387 26.1848 9.2572L25.2713 7.90811L25.2599 7.85062Z" fill="#2F2E41"/>
<path d="M19.4651 10.5296C20.4018 9.98915 19.197 8.02774 19.4391 6.88096C19.6812 5.73417 21.4246 5.36533 21.5357 4.19361C21.6467 3.02189 21.908 1.81338 22.5998 0.924276C23.0418 0.356136 23.6932 -0.0632854 24.3638 0.00787773C24.5907 0.0319548 24.8103 0.110407 25.0076 0.237892C25.2049 0.365376 25.3754 0.538899 25.5073 0.746638C25.6392 0.954378 25.7295 1.19145 25.7721 1.44172C25.8146 1.69199 25.8084 1.94957 25.7539 2.19692C25.9448 1.89453 26.4389 1.96007 26.5613 2.30402C26.67 2.6098 26.4298 2.98018 26.1471 3.00723C25.7772 3.51783 25.3536 4.0597 24.774 4.1627C24.6817 4.1864 24.5858 4.18634 24.4935 4.16253C24.4011 4.13871 24.3149 4.09177 24.2412 4.02523C24.1048 3.87889 24.0942 3.58632 24.256 3.47696C23.5277 3.80031 23.1007 4.68043 22.9926 5.54795C22.8846 6.41547 23.0341 7.29322 23.1326 8.16216C23.2311 9.03109 23.2735 9.94517 22.9687 10.7521C22.6086 11.7055 21.7794 12.3888 20.8745 12.6079C19.9695 12.827 19.0058 12.6129 18.1867 12.1303C17.3676 11.6478 16.6846 10.9111 16.1266 10.0853C17.0877 10.8481 18.4175 11.1339 19.4651 10.5296Z" fill="#2F2E41"/>
<path d="M26.8796 6.83176C25.9171 8.68503 27.7295 11.8077 25.9029 12.4561L26.0533 12.2879C27.1559 10.7721 24.8514 7.56376 25.954 6.04792C26.1253 5.82557 26.2723 5.58125 26.392 5.3201" fill="#2F2E41"/>
<path d="M25.3885 7.82257C25.3885 7.82257 26.2039 4.42046 29.6995 3.63523C29.7035 3.63378 29.7166 3.62791 29.7337 3.61911C29.7442 3.61176 29.7573 3.60442 29.7704 3.59708C29.731 3.57213 29.693 3.55013 29.6536 3.52809C29.6537 3.52817 29.6534 3.5281 29.6536 3.52809C29.6534 3.52802 29.6528 3.52781 29.6526 3.52767C29.6527 3.52785 29.6525 3.52753 29.6526 3.52767C29.6526 3.52749 29.6523 3.52682 29.6523 3.52663C29.6181 3.4914 29.584 3.45618 29.5485 3.42242L29.4487 3.42683C29.4487 3.42683 25.9413 2.806 25.3885 7.82257Z" fill="#FD6584"/>
<path d="M5.83033e-07 66.8536C-5.08673e-05 66.8728 0.00330339 66.8919 0.00986861 66.9097C0.0164338 66.9275 0.0260818 66.9436 0.0382566 66.9572C0.0504314 66.9709 0.0648924 66.9816 0.0808092 66.989C0.096726 66.9963 0.113784 67.0001 0.131001 67H78.869C78.9038 67 78.9371 66.9846 78.9616 66.9571C78.9862 66.9297 79 66.8924 79 66.8536C79 66.8148 78.9862 66.7775 78.9616 66.7501C78.9371 66.7226 78.9038 66.7072 78.869 66.7072H0.130994C0.113778 66.7071 0.0967216 66.7109 0.0808058 66.7182C0.0648901 66.7256 0.0504289 66.7363 0.0382549 66.7499C0.026081 66.7635 0.0164337 66.7797 0.00986861 66.7975C0.00330354 66.8153 -5.01325e-05 66.8344 5.83033e-07 66.8536Z" fill="#CCCCCC"/>
</svg>
